<svg id="Calque_1" data-name="Calque 1" xmlns="http://www.w3.org/2000/svg" viewBox="0 0 1458 784"><defs><style>.cls-1{fill:#ff931e;}.cls-13,.cls-2,.cls-24{fill:#fff;}.cls-2,.cls-5{opacity:0.31;}.cls-3{fill:#ff7bac;}.cls-4{fill:#7ac943;}.cls-5{fill:#ff0;}.cls-6{fill:#3fa9f5;}.cls-7{fill:#8c6239;}.cls-8{fill:#ccc;}.cls-9{fill:#e6e6e6;}.cls-10,.cls-12,.cls-24{opacity:0.2;}.cls-11{fill:#333;}.cls-12,.cls-14{fill:#1a1a1a;}.cls-13,.cls-26{opacity:0.1;}.cls-15{fill:#4d4d4d;}.cls-16{fill:#754c24;}.cls-17{fill:#603813;}.cls-18{fill:#76bf3d;}.cls-19{fill:#fbb03b;}.cls-20{fill:#b3b3b3;}.cls-21{fill:#c7b299;}.cls-22{opacity:0.5;}.cls-23{fill:#29abe2;}.cls-25,.cls-29,.cls-30,.cls-31{fill:none;stroke-miterlimit:10;}.cls-25{stroke:#ccc;}.cls-25,.cls-31{stroke-width:7px;}.cls-27{fill:gray;}.cls-28{fill:#0071bc;}.cls-29{stroke:#ff1d25;stroke-width:2px;}.cls-29,.cls-30,.cls-31{stroke-linecap:round;}.cls-30,.cls-31{stroke:#fbb03b;}.cls-30{stroke-width:6px;}</style></defs><g id="Livres"><path class="cls-1" d="M412.05,94,320.77,233.47c-1,1.54-2.63,2.26-3.62,1.62l-16.85-11c-1-.65-1-2.43,0-4L391.62,80.63c1-1.55,2.62-2.27,3.62-1.62l16.85,11C413.08,90.69,413.06,92.46,412.05,94Z" transform="translate(-0.19 -12)"/><rect class="cls-2" x="316.9" y="201.6" width="4.29" height="24.43" transform="translate(-34.77 351.66) rotate(-56.79)"/><rect class="cls-2" x="391.2" y="88.07" width="4.29" height="24.43" transform="translate(93.83 362.48) rotate(-56.79)"/><rect class="cls-2" x="351.62" y="121.56" width="7.88" height="72.89" transform="translate(144.41 -180.92) rotate(33.21)"/><rect class="cls-3" x="316.01" y="99.23" width="223" height="48.85" rx="4.29" transform="translate(159.88 467.37) rotate(-69.2)"/><rect class="cls-2" x="393.75" y="180.81" width="5.52" height="48.85" transform="translate(63.63 491) rotate(-69.2)"/><rect class="cls-2" x="455.74" y="17.66" width="5.52" height="48.85" transform="translate(256.13 443.74) rotate(-69.2)"/><rect class="cls-2" x="419.1" y="78.16" width="15.76" height="93.77" transform="translate(72.06 -155.5) rotate(20.8)"/><path class="cls-4" d="M469.28,178.2H765.53c3.27,0,5.92,2.24,5.92,5v47.1c0,2.77-2.65,5-5.92,5H469.28c-3.27,0-5.92-2.24-5.92-5v-47.1C463.36,180.44,466,178.2,469.28,178.2Z" transform="translate(-0.19 -12)"/><rect class="cls-5" x="733.98" y="166.2" width="7.62" height="57.13"/><rect class="cls-5" x="492.84" y="166.2" width="7.62" height="57.13"/><rect class="cls-5" x="610.23" y="141.98" width="18.43" height="129.55" transform="translate(412.5 814.2) rotate(-90)"/><path class="cls-6" d="M453.07,134.31H667.49a4.08,4.08,0,0,1,4.28,3.85v36.18a4.09,4.09,0,0,1-4.28,3.86H453.07a4.09,4.09,0,0,1-4.29-3.86V138.16A4.09,4.09,0,0,1,453.07,134.31Z" transform="translate(-0.19 -12)"/><rect class="cls-2" x="644.6" y="122.31" width="5.52" height="43.89"/><rect class="cls-2" x="470.06" y="122.31" width="5.52" height="43.89"/><rect class="cls-2" x="554.68" y="109.37" width="14.16" height="93.77" transform="translate(405.31 706.01) rotate(-90)"/><rect class="cls-7" x="263.81" y="223.45" width="524" height="18.12" rx="9.06"/></g><g id="Ecran"><path class="cls-8" d="M1039.35,756H994c-2.21,0-3.77-4.06-3.5-9l3.67-66,3.38-60.91c.29-5.15,3-9.21,6.14-9.21h25.94c3.11,0,5.85,4.06,6.14,9.21l3.38,60.91,3.67,66C1043.12,751.94,1041.56,756,1039.35,756Z" transform="translate(-0.19 -12)"/><path class="cls-9" d="M925.9,733h181.2a5.32,5.32,0,0,1,5.32,5.32v3a2.64,2.64,0,0,1-2.64,2.64H923.22a2.64,2.64,0,0,1-2.64-2.64v-3A5.32,5.32,0,0,1,925.9,733Z"/><path class="cls-10" d="M1039.18,681h-45l3.38-60.91c.29-5.15,3-9.21,6.14-9.21h25.94c3.11,0,5.85,4.06,6.14,9.21Z" transform="translate(-0.19 -12)"/><g id="Ecran-2" data-name="Ecran"><rect class="cls-11" x="752.93" y="226.73" width="527.8" height="336.35" transform="translate(621.74 1399.73) rotate(-90)"/><path class="cls-12" d="M1168.63,150.75v488.3a2.93,2.93,0,0,1-3.07,2.75H868.09a2.93,2.93,0,0,1-3.07-2.75V150.75a2.93,2.93,0,0,1,3.07-2.75h297.47A2.93,2.93,0,0,1,1168.63,150.75Z" transform="translate(-0.19 -12)"/><path class="cls-13" d="M1168.63,482.39V639.05a2.93,2.93,0,0,1-3.07,2.75H990.78Z" transform="translate(-0.19 -12)"/><polygon class="cls-13" points="1168.44 365.76 1168.44 410.25 923.5 629.8 871.79 629.8 1166.36 365.76 1168.44 365.76"/></g></g><g id="Imac"><path class="cls-8" d="M561.76,756H489.52c-3.52,0-6-4.06-5.58-9l5.85-66,5.39-60.91a10.09,10.09,0,0,1,9.79-9.21h41.34a10.09,10.09,0,0,1,9.79,9.21L561.49,681l5.85,66C567.77,751.94,565.28,756,561.76,756Z" transform="translate(-0.19 -12)"/><path class="cls-9" d="M417.49,732.68H633.41a5.87,5.87,0,0,1,5.87,5.87v2.53a2.91,2.91,0,0,1-2.91,2.91H414.53a2.91,2.91,0,0,1-2.91-2.91v-2.53A5.87,5.87,0,0,1,417.49,732.68Z"/><path class="cls-10" d="M561.49,681h-71.7l5.39-60.91a10.09,10.09,0,0,1,9.79-9.21h41.34a10.09,10.09,0,0,1,9.79,9.21Z" transform="translate(-0.19 -12)"/><path class="cls-9" d="M311.06,290.17H739.84a51.32,51.32,0,0,1,51.32,51.32V634.66a25.46,25.46,0,0,1-25.46,25.46H285.21a25.46,25.46,0,0,1-25.46-25.46V341.49A51.32,51.32,0,0,1,311.06,290.17Z"/><path class="cls-11" d="M283.84,290H767.06a24.1,24.1,0,0,1,24.1,24.1V593.55a0,0,0,0,1,0,0H259.74a0,0,0,0,1,0,0V314.1A24.1,24.1,0,0,1,283.84,290Z"/><rect class="cls-12" x="276.86" y="305" width="497.18" height="274" rx="2.77"/><path class="cls-13" d="M774.23,425.34V588.23a2.77,2.77,0,0,1-2.77,2.77H608.57Z" transform="translate(-0.19 -12)"/><circle class="cls-14" cx="525.45" cy="623.5" r="12.5"/><path class="cls-13" d="M774.23,319.77v39.31L542.31,591H495.64l274-274h1.82A2.77,2.77,0,0,1,774.23,319.77Z" transform="translate(-0.19 -12)"/></g><g id="Enceintes"><rect class="cls-11" x="77.81" y="599" width="89" height="145" rx="9.23"/><path class="cls-14" d="M77.81,712h89a0,0,0,0,1,0,0v27.66a4.34,4.34,0,0,1-4.34,4.34H82.15a4.34,4.34,0,0,1-4.34-4.34V712A0,0,0,0,1,77.81,712Z"/><circle class="cls-14" cx="122.31" cy="641.25" r="36"/><circle cx="122.31" cy="641.25" r="32.75"/><circle class="cls-15" cx="122.31" cy="641.25" r="27.75"/><circle class="cls-16" cx="122.31" cy="641.25" r="21.75"/><circle class="cls-14" cx="122.31" cy="641.25" r="13.75"/><circle cx="122.31" cy="641.25" r="5.75"/><circle class="cls-17" cx="153.94" cy="729" r="4"/><rect class="cls-11" x="1290.81" y="599" width="89" height="145" rx="9.23"/><path class="cls-14" d="M1290.81,712h89a0,0,0,0,1,0,0v27.66a4.34,4.34,0,0,1-4.34,4.34h-80.33a4.34,4.34,0,0,1-4.34-4.34V712A0,0,0,0,1,1290.81,712Z"/><circle class="cls-14" cx="1335.31" cy="641.25" r="36"/><circle cx="1335.31" cy="641.25" r="32.75"/><circle class="cls-15" cx="1335.31" cy="641.25" r="27.75"/><circle class="cls-16" cx="1335.31" cy="641.25" r="21.75"/><circle class="cls-14" cx="1335.31" cy="641.25" r="13.75"/><circle cx="1335.31" cy="641.25" r="5.75"/><circle class="cls-17" cx="1366.94" cy="729" r="4"/></g><g id="Plante"><rect class="cls-7" x="66.56" y="405.19" width="112.25" height="11.81" rx="3.39"/><path class="cls-4" d="M108.09,330.68c-11.11-2.3-13.33-23.45-5-47.23s24.16-41.2,35.27-38.9" transform="translate(-0.19 -12)"/><path class="cls-18" d="M138.4,244.55c11.11,2.3,13.33,23.45,5,47.23s-24.16,41.2-35.27,38.9" transform="translate(-0.19 -12)"/><path class="cls-4" d="M113,325.71c-4.71-3,1.64-13.51,14.19-23.42s26.54-15.49,31.26-12.47" transform="translate(-0.19 -12)"/><path class="cls-18" d="M158.45,289.82c4.71,3-1.64,13.52-14.19,23.43S117.72,328.74,113,325.71" transform="translate(-0.19 -12)"/><path class="cls-4" d="M107.1,324.49c6.06-.79,7.45-12.31,3.11-25.72s-12.77-23.64-18.83-22.84" transform="translate(-0.19 -12)"/><path class="cls-18" d="M91.38,275.93c-6.06.79-7.45,12.31-3.11,25.72S101,325.28,107.1,324.49" transform="translate(-0.19 -12)"/><path class="cls-4" d="M137.66,330.68c11.11-2.3,13.33-23.45,5-47.23s-24.16-41.2-35.27-38.9" transform="translate(-0.19 -12)"/><path class="cls-18" d="M107.34,244.55c-11.1,2.3-13.32,23.45-5,47.23s24.16,41.2,35.27,38.9" transform="translate(-0.19 -12)"/><path class="cls-4" d="M132.74,325.71c4.72-3-1.63-13.51-14.18-23.42S92,286.8,87.3,289.82" transform="translate(-0.19 -12)"/><path class="cls-18" d="M87.3,289.82c-4.72,3,1.63,13.52,14.18,23.43s26.55,15.49,31.26,12.46" transform="translate(-0.19 -12)"/><path class="cls-4" d="M138.64,324.49c-6.06-.79-7.45-12.31-3.11-25.72s12.78-23.64,18.84-22.84" transform="translate(-0.19 -12)"/><path class="cls-18" d="M154.37,275.93c6.06.79,7.45,12.31,3.11,25.72s-12.78,23.63-18.84,22.84" transform="translate(-0.19 -12)"/><path class="cls-4" d="M122.87,360.21c-11.5,0-20.83-26.91-20.83-60.11s9.33-60.1,20.83-60.1" transform="translate(-0.19 -12)"/><path class="cls-18" d="M122.87,240c11.51,0,20.84,26.91,20.84,60.1s-9.33,60.11-20.84,60.11" transform="translate(-0.19 -12)"/><path class="cls-4" d="M125.93,352.42c-5.58-2.67-3-18,5.73-34.29s20.37-27.31,26-24.64" transform="translate(-0.19 -12)"/><path class="cls-18" d="M157.61,293.49c5.58,2.66,3,18-5.74,34.29s-20.36,27.3-25.94,24.64" transform="translate(-0.19 -12)"/><path class="cls-4" d="M119.82,352.42c5.58-2.67,3-18-5.74-34.29s-20.36-27.31-25.94-24.64" transform="translate(-0.19 -12)"/><path class="cls-18" d="M88.14,293.49c-5.58,2.66-3,18,5.73,34.29s20.37,27.3,25.95,24.64" transform="translate(-0.19 -12)"/><path class="cls-16" d="M157.59,361.52l-.2,1.15-.81,4.49L149,409.71a9.54,9.54,0,0,1-9.27,7.48H106.05a9.54,9.54,0,0,1-9.28-7.48l-7.61-42.55-.8-4.49-.21-1.15C87.23,356.37,89.84,352,94,352H151.7C155.9,352,158.51,356.37,157.59,361.52Z" transform="translate(-0.19 -12)"/><path class="cls-10" d="M162.27,351v8a3.62,3.62,0,0,1-3.54,3.69h-1.34l-.81,4.49H89.16l-.8-4.49H87a3.58,3.58,0,0,1-3.47-3v-8a3.61,3.61,0,0,1,3.54-3.68H158.8A3.57,3.57,0,0,1,162.27,351Z" transform="translate(-0.19 -12)"/><path class="cls-16" d="M162.27,347.23V359a3.62,3.62,0,0,1-3.54,3.69H87a3.58,3.58,0,0,1-3.47-3,4.17,4.17,0,0,1-.06-.71V347.23A3.61,3.61,0,0,1,87,343.55h71.72A3.62,3.62,0,0,1,162.27,347.23Z" transform="translate(-0.19 -12)"/></g><g id="Stylos"><rect class="cls-19" x="1198.69" y="676.31" width="132.8" height="6" transform="translate(417.52 1826.55) rotate(-82.07)"/><path class="cls-3" d="M1251.77,753.13l.72-5.12,5.94.83-.71,5.12c-.17,1.22-.67,2.16-1.11,2.1l-4.35-.61C1251.82,755.39,1251.61,754.35,1251.77,753.13Z" transform="translate(-0.19 -12)"/><rect class="cls-20" x="1254" y="743.75" width="3.39" height="6" transform="translate(342.62 1875.38) rotate(-82.07)"/><polygon class="cls-21" points="1271.09 601.13 1274.19 589.74 1275.17 586.14 1277.3 578.35 1277.21 586.43 1277.17 590.15 1277.04 601.96 1271.09 601.13"/><polygon class="cls-14" points="1275.17 586.14 1277.3 578.35 1277.21 586.43 1275.17 586.14"/><path class="cls-10" d="M1251.77,753.13l19.51-140,3.1-11.39,1-3.6,2.12-7.79-23,165.4-2.18-.3C1251.82,755.39,1251.61,754.35,1251.77,753.13Z" transform="translate(-0.19 -12)"/><rect class="cls-19" x="1199.84" y="685.49" width="117.51" height="5.31" transform="translate(403.17 1827.74) rotate(-82.07)"/><path class="cls-3" d="M1246.82,753.47l.63-4.53,5.26.73-.64,4.53c-.15,1.08-.58,1.91-1,1.86l-3.85-.54C1246.86,755.47,1246.67,754.55,1246.82,753.47Z" transform="translate(-0.19 -12)"/><rect class="cls-20" x="1248.78" y="745.17" width="3" height="5.31" transform="translate(336.89 1870.95) rotate(-82.07)"/><polygon class="cls-21" points="1263.89 617.59 1266.63 607.51 1267.5 604.33 1269.38 597.43 1269.3 604.58 1269.26 607.87 1269.15 618.32 1263.89 617.59"/><polygon class="cls-14" points="1267.5 604.33 1269.38 597.43 1269.3 604.58 1267.5 604.33"/><path class="cls-10" d="M1246.82,753.47l17.26-123.88,2.74-10.08.87-3.18,1.88-6.9-20.4,146.36-1.92-.27C1246.86,755.47,1246.67,754.55,1246.82,753.47Z" transform="translate(-0.19 -12)"/><rect class="cls-4" x="1207.33" y="647.97" width="11.69" height="93.31" transform="translate(-126.86 283.75) rotate(-13.22)"/><path class="cls-3" d="M1206.82,642l.83,3.53-11.38,2.67-.83-3.53a1.57,1.57,0,0,1,1.17-1.88l8.33-2A1.56,1.56,0,0,1,1206.82,642Z" transform="translate(-0.19 -12)"/><rect class="cls-20" x="1196.39" y="646.86" width="11.69" height="2.38" transform="translate(-116.5 280.02) rotate(-13.22)"/><polygon class="cls-21" points="1229.34 726.71 1228.38 735.38 1228.07 738.12 1227.41 744.06 1224.18 739.04 1222.69 736.72 1217.96 729.38 1229.34 726.71"/><polygon class="cls-14" points="1228.07 738.12 1227.41 744.06 1224.18 739.04 1228.07 738.12"/><path class="cls-10" d="M1206.82,642l22.71,96.69-1,8.67-.3,2.74-.66,5.94-26.83-114.23,4.17-1A1.56,1.56,0,0,1,1206.82,642Z" transform="translate(-0.19 -12)"/><g class="cls-22"><polygon class="cls-23" points="1270.81 651.06 1269.51 670.69 1268.39 687.47 1267.24 704.71 1264.62 744.06 1205.75 744.06 1205.46 739.7 1199.55 651.06 1270.81 651.06"/><polygon class="cls-24" points="1267.24 704.71 1264.62 744.06 1230.72 744.06 1267.24 704.71"/><polygon class="cls-24" points="1269.51 670.69 1268.39 687.47 1215.87 744.06 1205.75 744.06 1205.46 739.7 1269.51 670.69"/></g></g><g id="Café"><path class="cls-25" d="M844.44,695.82s82,16.31-14.2,43.18" transform="translate(-0.19 -12)"/><g id="Café-2" data-name="Café"><path class="cls-8" d="M789.69,677.5h65.63a7.5,7.5,0,0,1,7.5,7.5v19.19A40.31,40.31,0,0,1,822.5,744.5h0a40.31,40.31,0,0,1-40.31-40.31V685A7.5,7.5,0,0,1,789.69,677.5Z"/><circle class="cls-26" cx="821.81" cy="646" r="6"/><circle class="cls-26" cx="803.31" cy="644.5" r="3.5"/><circle class="cls-26" cx="812.31" cy="660.5" r="8.5"/></g></g><rect id="Bureau" class="cls-7" y="744" width="1458" height="40" rx="13.56"/><rect id="Bureau-2" data-name="Bureau" class="cls-16" x="90.5" y="775" width="1277" height="9" rx="4.5"/><g id="Agenda"><rect class="cls-27" x="1312.42" y="130" width="6.58" height="11.7" rx="2.69"/><rect class="cls-27" x="1332.17" y="130" width="6.58" height="11.7" rx="2.69"/><rect class="cls-27" x="1351.92" y="130" width="6.58" height="11.7" rx="2.69"/><g id="Agenda-2" data-name="Agenda"><rect class="cls-9" x="1287.91" y="135.85" width="95.1" height="105.34" rx="13.52"/><path class="cls-6" d="M1299.89,135.85H1371a12,12,0,0,1,12,12V169.5a0,0,0,0,1,0,0h-95.1a0,0,0,0,1,0,0V147.83A12,12,0,0,1,1299.89,135.85Z"/><g id="Agenda-3" data-name="Agenda"><path class="cls-28" d="M1307.5,224.32l5-25.55h5.4l-5.05,25.55Zm0,0,3.5-4.65h14.6v4.65Zm17.6,8v-35.5h5.2v35.5Zm4.7-8v-4.65h3.85v4.65Z" transform="translate(-0.19 -12)"/><path class="cls-28" d="M1339.45,232.27v-5.7q8.23-4.55,12.29-9.46a15.81,15.81,0,0,0,4.07-10.14,6.25,6.25,0,0,0-1.51-4.58,6.14,6.14,0,0,0-4.55-1.52,9,9,0,0,0-4.22,1.17,12.28,12.28,0,0,0-3.78,3.13l-3.45-3.43a12.14,12.14,0,0,1,4.9-4,15.42,15.42,0,0,1,6.65-1.5c3.76,0,6.56.88,8.42,2.66s2.79,4.45,2.79,8a17.85,17.85,0,0,1-3.42,10.31,36.81,36.81,0,0,1-10.39,9.49v5.5Zm1.5,0v-4.75h21.61v4.75Z" transform="translate(-0.19 -12)"/></g></g></g><g id="Horloge"><path class="cls-19" d="M185.91,113.28a73.06,73.06,0,0,1-73.06,73.06c-1.56,0-3.11-.05-4.64-.15a73.17,73.17,0,1,1,77.55-77.56Q185.91,110.94,185.91,113.28Z" transform="translate(-0.19 -12)"/><circle class="cls-9" cx="112.66" cy="101.28" r="66.78"/><line class="cls-29" x1="112.81" y1="101" x2="82.8" y2="150.65"/><line class="cls-30" x1="154.81" y1="71" x2="112.81" y2="101"/><line class="cls-31" x1="84.31" y1="82.5" x2="112.31" y2="101.5"/><circle class="cls-19" cx="112.66" cy="101.28" r="7.07"/></g></svg>