<svg id="Calque_1" data-name="Calque 1" xmlns="http://www.w3.org/2000/svg" viewBox="0 0 1458 786"><defs><style>.cls-1{fill:#ff931e;}.cls-13,.cls-2,.cls-26{fill:#fff;}.cls-2,.cls-5{opacity:0.31;}.cls-3{fill:#ff7bac;}.cls-4{fill:#7ac943;}.cls-5{fill:#ff0;}.cls-6{fill:#3fa9f5;}.cls-7{fill:#8c6239;}.cls-8{fill:#ccc;}.cls-9{fill:#e6e6e6;}.cls-10,.cls-12,.cls-26{opacity:0.2;}.cls-11{fill:#333;}.cls-12,.cls-14{fill:#1a1a1a;}.cls-13,.cls-21{opacity:0.1;}.cls-15{fill:#4d4d4d;}.cls-16{fill:#754c24;}.cls-17{fill:#603813;}.cls-18{fill:#76bf3d;}.cls-19{fill:#fbb03b;}.cls-20,.cls-27{fill:none;stroke-miterlimit:10;}.cls-20{stroke:#ff1d25;stroke-width:2px;}.cls-22{fill:#b3b3b3;}.cls-23{fill:#c7b299;}.cls-24{opacity:0.5;}.cls-25{fill:#29abe2;}.cls-27{stroke:#ccc;stroke-width:7px;}.cls-28{fill:gray;}.cls-29{fill:#0071bc;}</style></defs><path class="cls-1" d="M415.05,92,323.77,231.47c-1,1.54-2.63,2.26-3.62,1.62l-16.85-11c-1-.65-1-2.43,0-4L394.62,78.63c1-1.55,2.62-2.27,3.62-1.62l16.85,11C416.08,88.69,416.06,90.46,415.05,92Z" transform="translate(-0.38 -10)"/><rect class="cls-2" x="319.9" y="199.6" width="4.29" height="24.43" transform="translate(-31.92 355.27) rotate(-56.79)"/><rect class="cls-2" x="394.2" y="86.07" width="4.29" height="24.43" transform="translate(96.68 366.08) rotate(-56.79)"/><rect class="cls-2" x="354.62" y="119.56" width="7.88" height="72.89" transform="translate(143.61 -180.89) rotate(33.21)"/><rect class="cls-3" x="319.01" y="97.23" width="223" height="48.85" rx="4.29" transform="translate(163.5 470.89) rotate(-69.2)"/><rect class="cls-2" x="396.75" y="178.81" width="5.52" height="48.85" transform="translate(67.25 494.51) rotate(-69.2)"/><rect class="cls-2" x="458.74" y="15.66" width="5.52" height="48.85" transform="translate(259.74 447.26) rotate(-69.2)"/><rect class="cls-2" x="422.1" y="76.16" width="15.76" height="93.77" transform="translate(71.36 -154.69) rotate(20.8)"/><path class="cls-4" d="M472.28,176.2H768.53c3.27,0,5.92,2.24,5.92,5v47.1c0,2.77-2.65,5-5.92,5H472.28c-3.27,0-5.92-2.24-5.92-5v-47.1C466.36,178.44,469,176.2,472.28,176.2Z" transform="translate(-0.38 -10)"/><rect class="cls-5" x="736.79" y="166.2" width="7.62" height="57.13"/><rect class="cls-5" x="495.65" y="166.2" width="7.62" height="57.13"/><rect class="cls-5" x="613.23" y="139.98" width="18.43" height="129.55" transform="translate(417.31 817.2) rotate(-90)"/><path class="cls-6" d="M456.07,132.31H670.49a4.08,4.08,0,0,1,4.28,3.85v36.18a4.09,4.09,0,0,1-4.28,3.86H456.07a4.09,4.09,0,0,1-4.29-3.86V136.16A4.09,4.09,0,0,1,456.07,132.31Z" transform="translate(-0.38 -10)"/><rect class="cls-2" x="647.41" y="122.31" width="5.52" height="43.89"/><rect class="cls-2" x="472.88" y="122.31" width="5.52" height="43.89"/><rect class="cls-2" x="557.68" y="107.37" width="14.16" height="93.77" transform="translate(410.13 709.01) rotate(-90)"/><rect class="cls-7" x="266.63" y="223.45" width="524" height="18.12" rx="9.06"/><path class="cls-8" d="M1029.35,756H984c-2.21,0-3.77-4.06-3.5-9l3.67-66,3.38-60.91c.29-5.15,3-9.21,6.14-9.21h25.94c3.11,0,5.85,4.06,6.14,9.21l3.38,60.91,3.67,66C1033.12,751.94,1031.56,756,1029.35,756Z" transform="translate(-0.38 -10)"/><path class="cls-9" d="M915.71,735h181.2a5.32,5.32,0,0,1,5.32,5.32v3a2.64,2.64,0,0,1-2.64,2.64H913a2.64,2.64,0,0,1-2.64-2.64v-3A5.32,5.32,0,0,1,915.71,735Z"/><path class="cls-10" d="M1029.18,681h-45l3.38-60.91c.29-5.15,3-9.21,6.14-9.21h25.94c3.11,0,5.85,4.06,6.14,9.21Z" transform="translate(-0.38 -10)"/><rect class="cls-11" x="742.93" y="226.73" width="527.8" height="336.35" transform="translate(611.55 1391.73) rotate(-90)"/><path class="cls-12" d="M1158.63,150.75v488.3a2.93,2.93,0,0,1-3.07,2.75H858.09a2.93,2.93,0,0,1-3.07-2.75V150.75a2.93,2.93,0,0,1,3.07-2.75h297.47A2.93,2.93,0,0,1,1158.63,150.75Z" transform="translate(-0.38 -10)"/><path class="cls-13" d="M1158.63,482.39V639.05a2.93,2.93,0,0,1-3.07,2.75H980.78Z" transform="translate(-0.38 -10)"/><polygon class="cls-13" points="1158.25 367.76 1158.25 412.25 913.32 631.8 861.6 631.8 1156.17 367.76 1158.25 367.76"/><path class="cls-8" d="M564.76,756H492.52c-3.52,0-6-4.06-5.58-9l5.85-66,5.39-60.91a10.09,10.09,0,0,1,9.79-9.21h41.34a10.09,10.09,0,0,1,9.79,9.21L564.49,681l5.85,66C570.77,751.94,568.28,756,564.76,756Z" transform="translate(-0.38 -10)"/><path class="cls-9" d="M420.31,734.68H636.22a5.87,5.87,0,0,1,5.87,5.87v2.53a2.91,2.91,0,0,1-2.91,2.91H417.35a2.91,2.91,0,0,1-2.91-2.91v-2.53A5.87,5.87,0,0,1,420.31,734.68Z"/><path class="cls-10" d="M564.49,681h-71.7l5.39-60.91a10.09,10.09,0,0,1,9.79-9.21h41.34a10.09,10.09,0,0,1,9.79,9.21Z" transform="translate(-0.38 -10)"/><path class="cls-9" d="M313.88,292.17H742.65A51.32,51.32,0,0,1,794,343.49V636.66a25.46,25.46,0,0,1-25.46,25.46H288a25.46,25.46,0,0,1-25.46-25.46V343.49A51.32,51.32,0,0,1,313.88,292.17Z"/><path class="cls-11" d="M286.66,292H769.87A24.1,24.1,0,0,1,794,316.1V595.55a0,0,0,0,1,0,0H262.56a0,0,0,0,1,0,0V316.1A24.1,24.1,0,0,1,286.66,292Z"/><rect class="cls-12" x="279.67" y="307" width="497.18" height="274" rx="2.77"/><path class="cls-13" d="M777.23,425.34V588.23a2.77,2.77,0,0,1-2.77,2.77H611.57Z" transform="translate(-0.38 -10)"/><circle class="cls-14" cx="528.26" cy="625.5" r="12.5"/><path class="cls-13" d="M777.23,319.77v39.31L545.31,591H498.64l274-274h1.82A2.77,2.77,0,0,1,777.23,319.77Z" transform="translate(-0.38 -10)"/><rect class="cls-11" x="95.63" y="601" width="89" height="145" rx="9.23"/><path class="cls-14" d="M95.63,714h89a0,0,0,0,1,0,0v27.66a4.34,4.34,0,0,1-4.34,4.34H100a4.34,4.34,0,0,1-4.34-4.34V714A0,0,0,0,1,95.63,714Z"/><circle class="cls-14" cx="140.13" cy="643.25" r="36"/><circle cx="140.13" cy="643.25" r="32.75"/><circle class="cls-15" cx="140.13" cy="643.25" r="27.75"/><circle class="cls-16" cx="140.13" cy="643.25" r="21.75"/><circle class="cls-14" cx="140.13" cy="643.25" r="13.75"/><circle cx="140.13" cy="643.25" r="5.75"/><circle class="cls-17" cx="171.75" cy="731" r="4"/><rect class="cls-11" x="1270.63" y="601" width="89" height="145" rx="9.23"/><path class="cls-14" d="M1270.63,714h89a0,0,0,0,1,0,0v27.66a4.34,4.34,0,0,1-4.34,4.34H1275a4.34,4.34,0,0,1-4.34-4.34V714A0,0,0,0,1,1270.63,714Z"/><circle class="cls-14" cx="1315.13" cy="643.25" r="36"/><circle cx="1315.13" cy="643.25" r="32.75"/><circle class="cls-15" cx="1315.13" cy="643.25" r="27.75"/><circle class="cls-16" cx="1315.13" cy="643.25" r="21.75"/><circle class="cls-14" cx="1315.13" cy="643.25" r="13.75"/><circle cx="1315.13" cy="643.25" r="5.75"/><circle class="cls-17" cx="1346.75" cy="731" r="4"/><rect class="cls-7" x="89.37" y="419.19" width="112.25" height="11.81" rx="3.39"/><path class="cls-4" d="M131.09,342.68c-11.11-2.3-13.33-23.45-5-47.23s24.16-41.2,35.27-38.9" transform="translate(-0.38 -10)"/><path class="cls-18" d="M161.4,256.55c11.11,2.3,13.33,23.45,5,47.23s-24.16,41.2-35.27,38.9" transform="translate(-0.38 -10)"/><path class="cls-4" d="M136,337.71c-4.71-3,1.64-13.51,14.19-23.42s26.54-15.49,31.26-12.47" transform="translate(-0.38 -10)"/><path class="cls-18" d="M181.45,301.82c4.71,3-1.64,13.52-14.19,23.43S140.72,340.74,136,337.71" transform="translate(-0.38 -10)"/><path class="cls-4" d="M130.1,336.49c6.06-.79,7.45-12.31,3.11-25.72s-12.77-23.64-18.83-22.84" transform="translate(-0.38 -10)"/><path class="cls-18" d="M114.38,287.93c-6.06.79-7.45,12.31-3.11,25.72S124,337.28,130.1,336.49" transform="translate(-0.38 -10)"/><path class="cls-4" d="M160.66,342.68c11.11-2.3,13.33-23.45,5-47.23s-24.16-41.2-35.27-38.9" transform="translate(-0.38 -10)"/><path class="cls-18" d="M130.34,256.55c-11.1,2.3-13.32,23.45-5,47.23s24.16,41.2,35.27,38.9" transform="translate(-0.38 -10)"/><path class="cls-4" d="M155.74,337.71c4.72-3-1.63-13.51-14.18-23.42S115,298.8,110.3,301.82" transform="translate(-0.38 -10)"/><path class="cls-18" d="M110.3,301.82c-4.72,3,1.63,13.52,14.18,23.43s26.55,15.49,31.26,12.46" transform="translate(-0.38 -10)"/><path class="cls-4" d="M161.64,336.49c-6.06-.79-7.45-12.31-3.11-25.72s12.78-23.64,18.84-22.84" transform="translate(-0.38 -10)"/><path class="cls-18" d="M177.37,287.93c6.06.79,7.45,12.31,3.11,25.72s-12.78,23.63-18.84,22.84" transform="translate(-0.38 -10)"/><path class="cls-4" d="M145.87,372.21c-11.5,0-20.83-26.91-20.83-60.11s9.33-60.1,20.83-60.1" transform="translate(-0.38 -10)"/><path class="cls-18" d="M145.87,252c11.51,0,20.84,26.91,20.84,60.1s-9.33,60.11-20.84,60.11" transform="translate(-0.38 -10)"/><path class="cls-4" d="M148.93,364.42c-5.58-2.67-3-18,5.73-34.29s20.37-27.31,26-24.64" transform="translate(-0.38 -10)"/><path class="cls-18" d="M180.61,305.49c5.58,2.66,3,18-5.74,34.29s-20.36,27.3-25.94,24.64" transform="translate(-0.38 -10)"/><path class="cls-4" d="M142.82,364.42c5.58-2.67,3-18-5.74-34.29s-20.36-27.31-25.94-24.64" transform="translate(-0.38 -10)"/><path class="cls-18" d="M111.14,305.49c-5.58,2.66-3,18,5.73,34.29s20.37,27.3,25.95,24.64" transform="translate(-0.38 -10)"/><path class="cls-16" d="M180.59,373.52l-.2,1.15-.81,4.49L172,421.71a9.54,9.54,0,0,1-9.27,7.48H129.05a9.54,9.54,0,0,1-9.28-7.48l-7.61-42.55-.8-4.49-.21-1.15c-.92-5.15,1.69-9.54,5.89-9.54H174.7C178.9,364,181.51,368.37,180.59,373.52Z" transform="translate(-0.38 -10)"/><path class="cls-10" d="M185.27,363v8a3.62,3.62,0,0,1-3.54,3.69h-1.34l-.81,4.49H112.16l-.8-4.49H110a3.58,3.58,0,0,1-3.47-3v-8a3.61,3.61,0,0,1,3.54-3.68H181.8A3.57,3.57,0,0,1,185.27,363Z" transform="translate(-0.38 -10)"/><path class="cls-16" d="M185.27,359.23V371a3.62,3.62,0,0,1-3.54,3.69H110a3.58,3.58,0,0,1-3.47-3,4.17,4.17,0,0,1-.06-.71V359.23a3.61,3.61,0,0,1,3.53-3.68h71.72A3.62,3.62,0,0,1,185.27,359.23Z" transform="translate(-0.38 -10)"/><path class="cls-19" d="M215.38,97.94a72.94,72.94,0,1,1-2.77-20A73.06,73.06,0,0,1,215.38,97.94Z" transform="translate(-0.38 -10)"/><circle class="cls-9" cx="141.94" cy="87.93" r="66.78"/><rect class="cls-19" x="138.76" y="28.03" width="6.28" height="59.7" rx="1.46"/><rect class="cls-19" x="155.54" y="74.3" width="6.28" height="37.15" rx="1.19" transform="translate(178.91 -99.83) rotate(66.09)"/><line class="cls-20" x1="141.51" y1="89.31" x2="108.52" y2="116.02"/><circle class="cls-19" cx="141.9" cy="88.52" r="7.07"/><path class="cls-21" d="M215.38,97.94a73.15,73.15,0,0,1-93.09,70.29l90.32-90.32A73.52,73.52,0,0,1,215.38,97.94Z" transform="translate(-0.38 -10)"/><rect class="cls-19" x="1183.69" y="676.31" width="132.8" height="6" transform="translate(404.4 1813.7) rotate(-82.07)"/><path class="cls-3" d="M1236.77,753.13l.72-5.12,5.94.83-.71,5.12c-.17,1.22-.67,2.16-1.11,2.1l-4.35-.61C1236.82,755.39,1236.61,754.35,1236.77,753.13Z" transform="translate(-0.38 -10)"/><rect class="cls-22" x="1239" y="743.75" width="3.39" height="6" transform="translate(329.5 1862.52) rotate(-82.07)"/><polygon class="cls-23" points="1255.91 603.13 1259.01 591.74 1259.99 588.14 1262.11 580.35 1262.02 588.43 1261.98 592.15 1261.85 603.96 1255.91 603.13"/><polygon class="cls-14" points="1259.99 588.14 1262.11 580.35 1262.02 588.43 1259.99 588.14"/><path class="cls-10" d="M1236.77,753.13l19.51-140,3.1-11.39,1-3.6,2.12-7.79-23,165.4-2.18-.3C1236.82,755.39,1236.61,754.35,1236.77,753.13Z" transform="translate(-0.38 -10)"/><rect class="cls-19" x="1184.84" y="685.49" width="117.51" height="5.31" transform="translate(390.05 1814.88) rotate(-82.07)"/><path class="cls-3" d="M1231.82,753.47l.63-4.53,5.26.73-.64,4.53c-.15,1.08-.58,1.91-1,1.86l-3.85-.54C1231.86,755.47,1231.67,754.55,1231.82,753.47Z" transform="translate(-0.38 -10)"/><rect class="cls-22" x="1233.78" y="745.17" width="3" height="5.31" transform="matrix(0.14, -0.99, 0.99, 0.14, 323.78, 1858.09)"/><polygon class="cls-23" points="1248.7 619.59 1251.45 609.51 1252.31 606.33 1254.19 599.43 1254.11 606.58 1254.08 609.87 1253.96 620.32 1248.7 619.59"/><polygon class="cls-14" points="1252.31 606.33 1254.19 599.43 1254.11 606.58 1252.31 606.33"/><path class="cls-10" d="M1231.82,753.47l17.26-123.88,2.74-10.08.87-3.18,1.88-6.9-20.4,146.36-1.92-.27C1231.86,755.47,1231.67,754.55,1231.82,753.47Z" transform="translate(-0.38 -10)"/><rect class="cls-4" x="1192.33" y="647.97" width="11.69" height="93.31" transform="translate(-127.45 282.32) rotate(-13.22)"/><path class="cls-3" d="M1191.82,642l.83,3.53-11.38,2.67-.83-3.53a1.57,1.57,0,0,1,1.17-1.88l8.33-2A1.56,1.56,0,0,1,1191.82,642Z" transform="translate(-0.38 -10)"/><rect class="cls-22" x="1181.39" y="646.86" width="11.69" height="2.38" transform="translate(-117.09 278.59) rotate(-13.22)"/><polygon class="cls-23" points="1214.15 728.71 1213.19 737.38 1212.89 740.12 1212.22 746.06 1208.99 741.04 1207.5 738.72 1202.77 731.38 1214.15 728.71"/><polygon class="cls-14" points="1212.89 740.12 1212.22 746.06 1208.99 741.04 1212.89 740.12"/><path class="cls-10" d="M1191.82,642l22.71,96.69-1,8.67-.3,2.74-.66,5.94-26.83-114.23,4.17-1A1.56,1.56,0,0,1,1191.82,642Z" transform="translate(-0.38 -10)"/><g class="cls-24"><polygon class="cls-25" points="1255.63 653.06 1254.32 672.69 1253.2 689.47 1252.05 706.71 1249.43 746.06 1190.56 746.06 1190.27 741.7 1184.37 653.06 1255.63 653.06"/><polygon class="cls-26" points="1252.05 706.71 1249.43 746.06 1215.53 746.06 1252.05 706.71"/><polygon class="cls-26" points="1254.32 672.69 1253.2 689.47 1200.68 746.06 1190.56 746.06 1190.27 741.7 1254.32 672.69"/></g><path class="cls-27" d="M844.44,695.82s82,16.31-14.2,43.18" transform="translate(-0.38 -10)"/><path class="cls-8" d="M789.5,679.5h65.63a7.5,7.5,0,0,1,7.5,7.5v19.19a40.31,40.31,0,0,1-40.31,40.31h0A40.31,40.31,0,0,1,782,706.19V687a7.5,7.5,0,0,1,7.5-7.5Z"/><circle class="cls-21" cx="821.63" cy="648" r="6"/><circle class="cls-21" cx="803.13" cy="646.5" r="3.5"/><circle class="cls-21" cx="812.13" cy="662.5" r="8.5"/><rect class="cls-7" y="746" width="1458" height="40" rx="13.56"/><rect class="cls-9" x="1281.73" y="144.85" width="95.1" height="105.34" rx="13.52"/><path class="cls-6" d="M1293.7,144.85h71.15a12,12,0,0,1,12,12V178.5a0,0,0,0,1,0,0h-95.1a0,0,0,0,1,0,0V156.83A12,12,0,0,1,1293.7,144.85Z"/><rect class="cls-28" x="1306.23" y="139" width="6.58" height="11.7" rx="2.69"/><rect class="cls-28" x="1325.98" y="139" width="6.58" height="11.7" rx="2.69"/><rect class="cls-28" x="1345.74" y="139" width="6.58" height="11.7" rx="2.69"/><path class="cls-29" d="M1301.5,231.32l5-25.55h5.4l-5.05,25.55Zm0,0,3.5-4.65h14.6v4.65Zm17.6,8v-35.5h5.2v35.5Zm4.7-8v-4.65h3.85v4.65Z" transform="translate(-0.38 -10)"/><path class="cls-29" d="M1333.45,239.27v-5.7q8.23-4.55,12.29-9.46a15.81,15.81,0,0,0,4.07-10.14,6.25,6.25,0,0,0-1.51-4.58,6.14,6.14,0,0,0-4.55-1.52,9,9,0,0,0-4.22,1.17,12.28,12.28,0,0,0-3.78,3.13l-3.45-3.43a12.14,12.14,0,0,1,4.9-4,15.42,15.42,0,0,1,6.65-1.5c3.76,0,6.56.88,8.42,2.66s2.79,4.45,2.79,8a17.85,17.85,0,0,1-3.42,10.31,36.81,36.81,0,0,1-10.39,9.49v5.5Zm1.5,0v-4.75h21.61v4.75Z" transform="translate(-0.38 -10)"/></svg>